<svg width="1664" height="600" aria-label="A chart." style="overflow: hidden;"><defs id="defs"><clipPath id="_ABSTRACT_RENDERER_ID_78"><rect x="230" y="115" width="1205" height="371"></rect></clipPath></defs><rect x="0" y="0" width="1664" height="600" stroke="none" stroke-width="0" fill="#ffffff"></rect><g><text text-anchor="start" x="230" y="84.3" font-family="Arial" font-size="18" font-weight="bold" stroke="none" stroke-width="0" fill="#000000">Grouped By Formulas</text><rect x="230" y="69" width="1205" height="18" stroke="none" stroke-width="0" fill-opacity="0" fill="#ffffff"></rect></g><g><rect x="230" y="115" width="1205" height="371" stroke="none" stroke-width="0" fill-opacity="0" fill="#ffffff"></rect><g clip-path="url(http://yasgui.org/#_ABSTRACT_RENDERER_ID_78)"><g><rect x="230" y="485" width="1205" height="1" stroke="none" stroke-width="0" fill="#cccccc"></rect><rect x="230" y="393" width="1205" height="1" stroke="none" stroke-width="0" fill="#cccccc"></rect><rect x="230" y="300" width="1205" height="1" stroke="none" stroke-width="0" fill="#cccccc"></rect><rect x="230" y="208" width="1205" height="1" stroke="none" stroke-width="0" fill="#cccccc"></rect><rect x="230" y="115" width="1205" height="1" stroke="none" stroke-width="0" fill="#cccccc"></rect></g><g><rect x="230" y="485" width="1205" height="1" stroke="none" stroke-width="0" fill="#333333"></rect></g><g><path d="M239.1,146.33333333333337L256.3,300.5L273.5,300.5L290.7,300.5L307.9,362.1666666666667L325.1,362.1666666666667L342.3,362.1666666666667L359.5,362.1666666666667L376.7,362.1666666666667L393.9,362.1666666666667L411.1,362.1666666666667L428.29999999999995,362.1666666666667L445.5,362.1666666666667L462.7,362.1666666666667L479.9,362.1666666666667L497.09999999999997,362.1666666666667L514.3,362.1666666666667L531.5,362.1666666666667L548.7,362.1666666666667L565.9,393L583.0999999999999,393L600.3,393L617.5,393L634.7,393L651.9,393L669.0999999999999,393L686.3,393L703.5,393L720.7,393L737.9,393L755.1,393L772.3,423.8333333333333L789.5,423.8333333333333L806.6999999999999,423.8333333333333L823.9,423.8333333333333L841.1,423.8333333333333L858.3,423.8333333333333L875.5,423.8333333333333L892.6999999999999,423.8333333333333L909.9,423.8333333333333L927.1,423.8333333333333L944.3,423.8333333333333L961.5,423.8333333333333L978.6999999999999,423.8333333333333L995.9,423.8333333333333L1013.1,423.8333333333333L1030.3,423.8333333333333L1047.5,423.8333333333333L1064.6999999999998,423.8333333333333L1081.9,423.8333333333333L1099.1,423.8333333333333L1116.3,423.8333333333333L1133.5,423.8333333333333L1150.6999999999998,423.8333333333333L1167.9,423.8333333333333L1185.1,423.8333333333333L1202.3,423.8333333333333L1219.5,423.8333333333333L1236.6999999999998,423.8333333333333L1253.9,454.6666666666667L1271.1,454.6666666666667L1288.3,454.6666666666667L1305.5,454.6666666666667L1322.7,454.6666666666667L1339.8999999999999,454.6666666666667L1357.1,454.6666666666667L1374.3,454.6666666666667L1391.5,454.6666666666667L1408.7,454.6666666666667L1425.8999999999999,454.6666666666667" stroke="#3366cc" stroke-width="2" fill-opacity="1" fill="none"></path></g></g><g><g><circle cx="325.1" cy="362.1666666666667" r="6.5" stroke="#3366cc" stroke-width="1" fill="#ffffff"></circle><circle cx="325.1" cy="362.1666666666667" r="4" stroke="none" stroke-width="0" fill="#3366cc"></circle></g></g><g><g><text text-anchor="end" x="242.075" y="501.6528511525174" font-family="Arial" font-size="17" transform="rotate(-30 242.075 501.6528511525174)" stroke="none" stroke-width="0" fill="#222222">&lt;moxmlns="http://…</text><path d="M94.55388458692093,570.1387840678324L234.85000000000002,489.1387840678323L243.35000000000002,503.86121593216774L103.05388458692093,584.8612159321677Z" stroke="none" stroke-width="0" fill-opacity="0" fill="#ffffff"></path></g><g><text text-anchor="end" x="293.675" y="501.6528511525174" font-family="Arial" font-size="17" transform="rotate(-30 293.675 501.6528511525174)" stroke="none" stroke-width="0" fill="#222222">&lt;moxmlns="http://…</text><path d="M146.1538845869209,570.1387840678323L286.45,489.13878406783226L294.95,503.86121593216774L154.6538845869209,584.8612159321677Z" stroke="none" stroke-width="0" fill-opacity="0" fill="#ffffff"></path></g><g><text text-anchor="end" x="345.27500000000003" y="501.6528511525174" font-family="Arial" font-size="17" transform="rotate(-30 345.27500000000003 501.6528511525174)" stroke="none" stroke-width="0" fill="#222222">&lt;mstylexmlns="htt…</text><path d="M197.75388458692095,570.1387840678324L338.05,489.1387840678324L346.55,503.86121593216785L206.25388458692095,584.8612159321679Z" stroke="none" stroke-width="0" fill-opacity="0" fill="#ffffff"></path></g><g><text text-anchor="end" x="396.875" y="501.6528511525174" font-family="Arial" font-size="17" transform="rotate(-30 396.875 501.6528511525174)" stroke="none" stroke-width="0" fill="#222222">&lt;mstylexmlns="htt…</text><path d="M249.35388458692094,570.1387840678323L389.65,489.13878406783226L398.15,503.86121593216774L257.8538845869209,584.8612159321677Z" stroke="none" stroke-width="0" fill-opacity="0" fill="#ffffff"></path></g><g><text text-anchor="end" x="448.475" y="501.6528511525174" font-family="Arial" font-size="17" transform="rotate(-30 448.475 501.6528511525174)" stroke="none" stroke-width="0" fill="#222222">&lt;mstylexmlns="htt…</text><path d="M300.95388458692094,570.1387840678323L441.25,489.1387840678323L449.75,503.8612159321677L309.45388458692094,584.8612159321676Z" stroke="none" stroke-width="0" fill-opacity="0" fill="#ffffff"></path></g><g><text text-anchor="end" x="500.075" y="501.6528511525174" font-family="Arial" font-size="17" transform="rotate(-30 500.075 501.6528511525174)" stroke="none" stroke-width="0" fill="#222222">&lt;semanticsxmlns=…</text><path d="M352.55388458692084,570.1387840678323L492.8499999999999,489.13878406783226L501.3499999999999,503.86121593216774L361.05388458692084,584.8612159321677Z" stroke="none" stroke-width="0" fill-opacity="0" fill="#ffffff"></path></g><g><text text-anchor="end" x="551.6750000000001" y="501.6528511525174" font-family="Arial" font-size="17" transform="rotate(-30 551.6750000000001 501.6528511525174)" stroke="none" stroke-width="0" fill="#222222">&lt;moxmlns="http://…</text><path d="M404.153884586921,570.1387840678323L544.45,489.13878406783226L552.95,503.86121593216774L412.653884586921,584.8612159321677Z" stroke="none" stroke-width="0" fill-opacity="0" fill="#ffffff"></path></g><g><text text-anchor="end" x="603.275" y="501.6528511525174" font-family="Arial" font-size="17" transform="rotate(-30 603.275 501.6528511525174)" stroke="none" stroke-width="0" fill="#222222">&lt;mrowxmlns="http:…</text><path d="M455.7538845869209,570.1387840678324L596.05,489.1387840678324L604.55,503.86121593216774L464.2538845869209,584.8612159321677Z" stroke="none" stroke-width="0" fill-opacity="0" fill="#ffffff"></path></g><g><text text-anchor="end" x="654.875" y="501.6528511525174" font-family="Arial" font-size="17" transform="rotate(-30 654.875 501.6528511525174)" stroke="none" stroke-width="0" fill="#222222">&lt;mstylexmlns="htt…</text><path d="M507.3538845869209,570.1387840678324L647.65,489.1387840678324L656.15,503.86121593216785L515.8538845869209,584.8612159321679Z" stroke="none" stroke-width="0" fill-opacity="0" fill="#ffffff"></path></g><g><text text-anchor="end" x="706.475" y="501.6528511525174" font-family="Arial" font-size="17" transform="rotate(-30 706.475 501.6528511525174)" stroke="none" stroke-width="0" fill="#222222">&lt;mixmlns="http://w…</text><path d="M558.9538845869209,570.1387840678323L699.25,489.13878406783226L707.75,503.86121593216774L567.4538845869209,584.8612159321677Z" stroke="none" stroke-width="0" fill-opacity="0" fill="#ffffff"></path></g><g><text text-anchor="end" x="758.075" y="501.6528511525174" font-family="Arial" font-size="17" transform="rotate(-30 758.075 501.6528511525174)" stroke="none" stroke-width="0" fill="#222222">&lt;mrowxmlns="http:…</text><path d="M610.553884586921,570.1387840678323L750.85,489.13878406783226L759.35,503.8612159321676L619.053884586921,584.8612159321676Z" stroke="none" stroke-width="0" fill-opacity="0" fill="#ffffff"></path></g><g><text text-anchor="end" x="809.675" y="501.6528511525174" font-family="Arial" font-size="17" transform="rotate(-30 809.675 501.6528511525174)" stroke="none" stroke-width="0" fill="#222222">&lt;semanticsxmlns=…</text><path d="M662.1538845869209,570.1387840678323L802.4499999999998,489.13878406783226L810.9499999999998,503.86121593216774L670.6538845869209,584.8612159321677Z" stroke="none" stroke-width="0" fill-opacity="0" fill="#ffffff"></path></g><g><text text-anchor="end" x="861.275" y="501.6528511525174" font-family="Arial" font-size="17" transform="rotate(-30 861.275 501.6528511525174)" stroke="none" stroke-width="0" fill="#222222">&lt;mrowxmlns="http:…</text><path d="M713.7538845869209,570.1387840678323L854.05,489.13878406783226L862.55,503.86121593216774L722.2538845869209,584.8612159321677Z" stroke="none" stroke-width="0" fill-opacity="0" fill="#ffffff"></path></g><g><text text-anchor="end" x="912.875" y="501.6528511525174" font-family="Arial" font-size="17" transform="rotate(-30 912.875 501.6528511525174)" stroke="none" stroke-width="0" fill="#222222">&lt;mrowxmlns="http:…</text><path d="M765.3538845869209,570.1387840678324L905.65,489.1387840678324L914.15,503.86121593216785L773.8538845869209,584.8612159321679Z" stroke="none" stroke-width="0" fill-opacity="0" fill="#ffffff"></path></g><g><text text-anchor="end" x="964.475" y="501.6528511525174" font-family="Arial" font-size="17" transform="rotate(-30 964.475 501.6528511525174)" stroke="none" stroke-width="0" fill="#222222">&lt;semanticsxmlns=…</text><path d="M816.9538845869209,570.1387840678324L957.25,489.1387840678324L965.75,503.86121593216785L825.4538845869209,584.8612159321679Z" stroke="none" stroke-width="0" fill-opacity="0" fill="#ffffff"></path></g><g><text text-anchor="end" x="1016.075" y="501.6528511525174" font-family="Arial" font-size="17" transform="rotate(-30 1016.075 501.6528511525174)" stroke="none" stroke-width="0" fill="#222222">&lt;mixmlns="http://w…</text><path d="M868.553884586921,570.1387840678323L1008.8500000000001,489.13878406783226L1017.3500000000001,503.86121593216774L877.053884586921,584.8612159321677Z" stroke="none" stroke-width="0" fill-opacity="0" fill="#ffffff"></path></g><g><text text-anchor="end" x="1067.6749999999997" y="501.6528511525174" font-family="Arial" font-size="17" transform="rotate(-30 1067.6749999999997 501.6528511525174)" stroke="none" stroke-width="0" fill="#222222">&lt;mixmlns="http://w…</text><path d="M920.1538845869209,570.1387840678323L1060.4499999999998,489.13878406783226L1068.9499999999998,503.86121593216774L928.6538845869209,584.8612159321677Z" stroke="none" stroke-width="0" fill-opacity="0" fill="#ffffff"></path></g><g><text text-anchor="end" x="1119.2749999999999" y="501.6528511525174" font-family="Arial" font-size="17" transform="rotate(-30 1119.2749999999999 501.6528511525174)" stroke="none" stroke-width="0" fill="#222222">&lt;moxmlns="http://…</text><path d="M971.7538845869209,570.1387840678323L1112.05,489.13878406783226L1120.55,503.86121593216774L980.2538845869209,584.8612159321677Z" stroke="none" stroke-width="0" fill-opacity="0" fill="#ffffff"></path></g><g><text text-anchor="end" x="1170.875" y="501.6528511525174" font-family="Arial" font-size="17" transform="rotate(-30 1170.875 501.6528511525174)" stroke="none" stroke-width="0" fill="#222222">&lt;moxmlns="http://…</text><path d="M1023.3538845869209,570.1387840678324L1163.65,489.1387840678324L1172.15,503.86121593216785L1031.853884586921,584.8612159321679Z" stroke="none" stroke-width="0" fill-opacity="0" fill="#ffffff"></path></g><g><text text-anchor="end" x="1222.475" y="501.6528511525174" font-family="Arial" font-size="17" transform="rotate(-30 1222.475 501.6528511525174)" stroke="none" stroke-width="0" fill="#222222">&lt;moxmlns="http://…</text><path d="M1074.953884586921,570.1387840678324L1215.25,489.1387840678323L1223.75,503.8612159321678L1083.453884586921,584.8612159321679Z" stroke="none" stroke-width="0" fill-opacity="0" fill="#ffffff"></path></g><g><text text-anchor="end" x="1274.0749999999998" y="501.6528511525174" font-family="Arial" font-size="17" transform="rotate(-30 1274.0749999999998 501.6528511525174)" stroke="none" stroke-width="0" fill="#222222">&lt;mrowxmlns="http:…</text><path d="M1126.5538845869207,570.1387840678324L1266.85,489.13878406783243L1275.35,503.8612159321678L1135.0538845869207,584.8612159321679Z" stroke="none" stroke-width="0" fill-opacity="0" fill="#ffffff"></path></g><g><text text-anchor="end" x="1325.675" y="501.6528511525174" font-family="Arial" font-size="17" transform="rotate(-30 1325.675 501.6528511525174)" stroke="none" stroke-width="0" fill="#222222">&lt;mrowxmlns="http:…</text><path d="M1178.1538845869209,570.1387840678321L1318.45,489.1387840678322L1326.95,503.8612159321677L1186.6538845869209,584.8612159321676Z" stroke="none" stroke-width="0" fill-opacity="0" fill="#ffffff"></path></g><g><text text-anchor="end" x="1377.2749999999999" y="501.6528511525174" font-family="Arial" font-size="17" transform="rotate(-30 1377.2749999999999 501.6528511525174)" stroke="none" stroke-width="0" fill="#222222">&lt;mstylexmlns="htt…</text><path d="M1229.7538845869208,570.1387840678321L1370.05,489.1387840678322L1378.55,503.8612159321677L1238.2538845869208,584.8612159321676Z" stroke="none" stroke-width="0" fill-opacity="0" fill="#ffffff"></path></g><g><text text-anchor="end" x="1428.8749999999998" y="501.6528511525174" font-family="Arial" font-size="17" transform="rotate(-30 1428.8749999999998 501.6528511525174)" stroke="none" stroke-width="0" fill="#222222">&lt;mrowxmlns="http:…</text><path d="M1281.3538845869207,570.1387840678324L1421.6499999999996,489.1387840678323L1430.1499999999996,503.8612159321678L1289.8538845869207,584.8612159321679Z" stroke="none" stroke-width="0" fill-opacity="0" fill="#ffffff"></path></g><g><text text-anchor="end" x="213" y="491.45" font-family="Arial" font-size="17" stroke="none" stroke-width="0" fill="#444444">0</text></g><g><text text-anchor="end" x="213" y="398.95" font-family="Arial" font-size="17" stroke="none" stroke-width="0" fill="#444444">3</text></g><g><text text-anchor="end" x="213" y="306.45" font-family="Arial" font-size="17" stroke="none" stroke-width="0" fill="#444444">6</text></g><g><text text-anchor="end" x="213" y="213.95" font-family="Arial" font-size="17" stroke="none" stroke-width="0" fill="#444444">9</text></g><g><text text-anchor="end" x="213" y="121.45" font-family="Arial" font-size="17" stroke="none" stroke-width="0" fill="#444444">12</text></g></g><g><rect x="230" y="126" width="82" height="17" stroke="none" stroke-width="0" fill-opacity="0" fill="#ffffff"></rect><g><rect x="230" y="126" width="82" height="17" stroke="none" stroke-width="0" fill-opacity="0" fill="#ffffff"></rect><g><g><text text-anchor="start" x="270" y="140.45" font-family="Arial" font-size="17" stroke="#ffffff" stroke-width="3" fill="#222222" aria-hidden="true">count</text><text text-anchor="start" x="270" y="140.45" font-family="Arial" font-size="17" stroke="none" stroke-width="0" fill="#222222">count</text></g></g><path d="M230,134.5L264,134.5" stroke="#3366cc" stroke-width="2" fill-opacity="1" fill="none"></path></g></g></g><g><g><text text-anchor="middle" x="832.5" y="596.2" font-family="Arial" font-size="12" font-weight="bold" font-style="italic" stroke="none" stroke-width="0" fill="#222222">XML Formula</text><rect x="230" y="586" width="1205" height="12" stroke="none" stroke-width="0" fill-opacity="0" fill="#ffffff"></rect></g></g><g></g></svg>