<svg width="1664" height="600" aria-label="A chart." style="overflow: hidden;"><defs id="defs"><clipPath id="_ABSTRACT_RENDERER_ID_106"><rect x="230" y="115" width="1205" height="371"></rect></clipPath></defs><rect x="0" y="0" width="1664" height="600" stroke="none" stroke-width="0" fill="#ffffff"></rect><g><text text-anchor="start" x="230" y="84.45" font-family="Arial" font-size="17" font-weight="bold" stroke="none" stroke-width="0" fill="#000000">Most Common Mathematical Concepts</text><rect x="230" y="70" width="1205" height="17" stroke="none" stroke-width="0" fill-opacity="0" fill="#ffffff"></rect></g><g><rect x="1452" y="115" width="195" height="17" stroke="none" stroke-width="0" fill-opacity="0" fill="#ffffff"></rect><g><rect x="1452" y="115" width="195" height="17" stroke="none" stroke-width="0" fill-opacity="0" fill="#ffffff"></rect><g><text text-anchor="start" x="1492" y="129.45" font-family="Arial" font-size="17" stroke="none" stroke-width="0" fill="#222222">count</text></g><rect x="1452" y="115" width="34" height="17" stroke="none" stroke-width="0" fill="#3366cc"></rect></g></g><g><rect x="230" y="115" width="1205" height="371" stroke="none" stroke-width="0" fill-opacity="0" fill="#ffffff"></rect><g clip-path="url(http://yasgui.org/#_ABSTRACT_RENDERER_ID_106)"><g><rect x="230" y="115" width="1" height="371" stroke="none" stroke-width="0" fill="#cccccc"></rect><rect x="531" y="115" width="1" height="371" stroke="none" stroke-width="0" fill="#cccccc"></rect><rect x="832" y="115" width="1" height="371" stroke="none" stroke-width="0" fill="#cccccc"></rect><rect x="1133" y="115" width="1" height="371" stroke="none" stroke-width="0" fill="#cccccc"></rect><rect x="1434" y="115" width="1" height="371" stroke="none" stroke-width="0" fill="#cccccc"></rect></g><g><rect x="231" y="466" width="938" height="15" stroke="none" stroke-width="0" fill="#3366cc"></rect><rect x="231" y="441" width="878" height="15" stroke="none" stroke-width="0" fill="#3366cc"></rect><rect x="231" y="416" width="854" height="15" stroke="none" stroke-width="0" fill="#3366cc"></rect><rect x="231" y="392" width="806" height="15" stroke="none" stroke-width="0" fill="#3366cc"></rect><rect x="231" y="367" width="613" height="15" stroke="none" stroke-width="0" fill="#3366cc"></rect><rect x="231" y="342" width="589" height="15" stroke="none" stroke-width="0" fill="#3366cc"></rect><rect x="231" y="318" width="577" height="15" stroke="none" stroke-width="0" fill="#3366cc"></rect><rect x="231" y="293" width="559" height="15" stroke="none" stroke-width="0" fill="#3366cc"></rect><rect x="231" y="268" width="505" height="15" stroke="none" stroke-width="0" fill="#3366cc"></rect><rect x="231" y="244" width="487" height="15" stroke="none" stroke-width="0" fill="#3366cc"></rect><rect x="231" y="219" width="487" height="15" stroke="none" stroke-width="0" fill="#3366cc"></rect><rect x="231" y="194" width="481" height="15" stroke="none" stroke-width="0" fill="#3366cc"></rect><rect x="231" y="170" width="481" height="15" stroke="none" stroke-width="0" fill="#3366cc"></rect><rect x="231" y="145" width="469" height="15" stroke="none" stroke-width="0" fill="#3366cc"></rect><rect x="231" y="120" width="469" height="15" stroke="none" stroke-width="0" fill="#3366cc"></rect></g><g><rect x="230" y="115" width="1" height="371" stroke="none" stroke-width="0" fill="#333333"></rect></g><g><g><path d="M1075.708,473L1263.532,473" stroke="#264d99" stroke-width="1" fill-opacity="0.3" fill="#264d99"></path><path d="M1075.708,471L1075.708,475" stroke="#264d99" stroke-width="1" fill-opacity="0.3" fill="#264d99"></path><path d="M1263.532,471L1263.532,475" stroke="#264d99" stroke-width="1" fill-opacity="0.3" fill="#264d99"></path></g><g><path d="M1021.528,449L1197.312,449" stroke="#264d99" stroke-width="1" fill-opacity="0.3" fill="#264d99"></path><path d="M1021.528,447L1021.528,450" stroke="#264d99" stroke-width="1" fill-opacity="0.3" fill="#264d99"></path><path d="M1197.312,447L1197.312,450" stroke="#264d99" stroke-width="1" fill-opacity="0.3" fill="#264d99"></path></g><g><path d="M999.8559999999999,424L1170.8239999999998,424" stroke="#264d99" stroke-width="1" fill-opacity="0.3" fill="#264d99"></path><path d="M999.8559999999999,422L999.8559999999999,426" stroke="#264d99" stroke-width="1" fill-opacity="0.3" fill="#264d99"></path><path d="M1170.8239999999998,422L1170.8239999999998,426" stroke="#264d99" stroke-width="1" fill-opacity="0.3" fill="#264d99"></path></g><g><path d="M956.512,399L1117.848,399" stroke="#264d99" stroke-width="1" fill-opacity="0.3" fill="#264d99"></path><path d="M956.512,397L956.512,401" stroke="#264d99" stroke-width="1" fill-opacity="0.3" fill="#264d99"></path><path d="M1117.848,397L1117.848,401" stroke="#264d99" stroke-width="1" fill-opacity="0.3" fill="#264d99"></path></g><g><path d="M783.136,375L905.944,375" stroke="#264d99" stroke-width="1" fill-opacity="0.3" fill="#264d99"></path><path d="M783.136,373L783.136,376" stroke="#264d99" stroke-width="1" fill-opacity="0.3" fill="#264d99"></path><path d="M905.944,373L905.944,376" stroke="#264d99" stroke-width="1" fill-opacity="0.3" fill="#264d99"></path></g><g><path d="M761.4639999999999,350L879.4559999999999,350" stroke="#264d99" stroke-width="1" fill-opacity="0.3" fill="#264d99"></path><path d="M761.4639999999999,348L761.4639999999999,352" stroke="#264d99" stroke-width="1" fill-opacity="0.3" fill="#264d99"></path><path d="M879.4559999999999,348L879.4559999999999,352" stroke="#264d99" stroke-width="1" fill-opacity="0.3" fill="#264d99"></path></g><g><path d="M750.628,325L866.2119999999999,325" stroke="#264d99" stroke-width="1" fill-opacity="0.3" fill="#264d99"></path><path d="M750.628,323L750.628,327" stroke="#264d99" stroke-width="1" fill-opacity="0.3" fill="#264d99"></path><path d="M866.2119999999999,323L866.2119999999999,327" stroke="#264d99" stroke-width="1" fill-opacity="0.3" fill="#264d99"></path></g><g><path d="M734.374,301L846.3459999999999,301" stroke="#264d99" stroke-width="1" fill-opacity="0.3" fill="#264d99"></path><path d="M734.374,299L734.374,302" stroke="#264d99" stroke-width="1" fill-opacity="0.3" fill="#264d99"></path><path d="M846.3459999999999,299L846.3459999999999,302" stroke="#264d99" stroke-width="1" fill-opacity="0.3" fill="#264d99"></path></g><g><path d="M685.6119999999999,276L786.748,276" stroke="#264d99" stroke-width="1" fill-opacity="0.3" fill="#264d99"></path><path d="M685.6119999999999,274L685.6119999999999,278" stroke="#264d99" stroke-width="1" fill-opacity="0.3" fill="#264d99"></path><path d="M786.748,274L786.748,278" stroke="#264d99" stroke-width="1" fill-opacity="0.3" fill="#264d99"></path></g><g><path d="M669.358,251L766.882,251" stroke="#264d99" stroke-width="1" fill-opacity="0.3" fill="#264d99"></path><path d="M669.358,249L669.358,253" stroke="#264d99" stroke-width="1" fill-opacity="0.3" fill="#264d99"></path><path d="M766.882,249L766.882,253" stroke="#264d99" stroke-width="1" fill-opacity="0.3" fill="#264d99"></path></g><g><path d="M669.358,227L766.882,227" stroke="#264d99" stroke-width="1" fill-opacity="0.3" fill="#264d99"></path><path d="M669.358,225L669.358,228" stroke="#264d99" stroke-width="1" fill-opacity="0.3" fill="#264d99"></path><path d="M766.882,225L766.882,228" stroke="#264d99" stroke-width="1" fill-opacity="0.3" fill="#264d99"></path></g><g><path d="M663.9399999999999,202L760.26,202" stroke="#264d99" stroke-width="1" fill-opacity="0.3" fill="#264d99"></path><path d="M663.9399999999999,200L663.9399999999999,204" stroke="#264d99" stroke-width="1" fill-opacity="0.3" fill="#264d99"></path><path d="M760.26,200L760.26,204" stroke="#264d99" stroke-width="1" fill-opacity="0.3" fill="#264d99"></path></g><g><path d="M663.9399999999999,177L760.26,177" stroke="#264d99" stroke-width="1" fill-opacity="0.3" fill="#264d99"></path><path d="M663.9399999999999,175L663.9399999999999,179" stroke="#264d99" stroke-width="1" fill-opacity="0.3" fill="#264d99"></path><path d="M760.26,175L760.26,179" stroke="#264d99" stroke-width="1" fill-opacity="0.3" fill="#264d99"></path></g><g><path d="M653.104,153L747.016,153" stroke="#264d99" stroke-width="1" fill-opacity="0.3" fill="#264d99"></path><path d="M653.104,151L653.104,154" stroke="#264d99" stroke-width="1" fill-opacity="0.3" fill="#264d99"></path><path d="M747.016,151L747.016,154" stroke="#264d99" stroke-width="1" fill-opacity="0.3" fill="#264d99"></path></g><g><path d="M653.104,128L747.016,128" stroke="#264d99" stroke-width="1" fill-opacity="0.3" fill="#264d99"></path><path d="M653.104,126L653.104,130" stroke="#264d99" stroke-width="1" fill-opacity="0.3" fill="#264d99"></path><path d="M747.016,126L747.016,130" stroke="#264d99" stroke-width="1" fill-opacity="0.3" fill="#264d99"></path></g></g></g><g></g><g><g><text text-anchor="middle" x="230.5" y="511.45" font-family="Arial" font-size="17" stroke="none" stroke-width="0" fill="#444444">0</text></g><g><text text-anchor="middle" x="531.5" y="511.45" font-family="Arial" font-size="17" stroke="none" stroke-width="0" fill="#444444">50</text></g><g><text text-anchor="middle" x="832.5" y="511.45" font-family="Arial" font-size="17" stroke="none" stroke-width="0" fill="#444444">100</text></g><g><text text-anchor="middle" x="1133.5" y="511.45" font-family="Arial" font-size="17" stroke="none" stroke-width="0" fill="#444444">150</text></g><g><text text-anchor="middle" x="1434.5" y="511.45" font-family="Arial" font-size="17" stroke="none" stroke-width="0" fill="#444444">200</text></g><g><text text-anchor="end" x="228" y="479.1166666666667" font-family="Arial" font-size="17" stroke="none" stroke-width="0" fill="#222222">Parry point</text></g><g><text text-anchor="end" x="228" y="454.45" font-family="Arial" font-size="17" stroke="none" stroke-width="0" fill="#222222">Generalized hypergeom…</text><rect x="21" y="440" width="207" height="17" stroke="none" stroke-width="0" fill-opacity="0" fill="#ffffff"></rect></g><g><text text-anchor="end" x="228" y="429.7833333333333" font-family="Arial" font-size="17" stroke="none" stroke-width="0" fill="#222222">convergent numerical m…</text><rect x="21" y="415.3333333333333" width="207" height="17" stroke="none" stroke-width="0" fill-opacity="0" fill="#ffffff"></rect></g><g><text text-anchor="end" x="228" y="405.1166666666666" font-family="Arial" font-size="17" stroke="none" stroke-width="0" fill="#222222">Taylor circle</text></g><g><text text-anchor="end" x="228" y="380.45" font-family="Arial" font-size="17" stroke="none" stroke-width="0" fill="#222222">condition number</text></g><g><text text-anchor="end" x="228" y="355.7833333333333" font-family="Arial" font-size="17" stroke="none" stroke-width="0" fill="#222222">Rayl</text></g><g><text text-anchor="end" x="228" y="331.1166666666666" font-family="Arial" font-size="17" stroke="none" stroke-width="0" fill="#222222">magnification</text></g><g><text text-anchor="end" x="228" y="306.45" font-family="Arial" font-size="17" stroke="none" stroke-width="0" fill="#222222">Euler characteristic</text></g><g><text text-anchor="end" x="228" y="281.7833333333333" font-family="Arial" font-size="17" stroke="none" stroke-width="0" fill="#222222">сapacity of a set</text></g><g><text text-anchor="end" x="228" y="257.1166666666667" font-family="Arial" font-size="17" stroke="none" stroke-width="0" fill="#222222">helium atom</text></g><g><text text-anchor="end" x="228" y="232.45" font-family="Arial" font-size="17" stroke="none" stroke-width="0" fill="#222222">Degen's eight-square ide…</text><rect x="21" y="218" width="207" height="17" stroke="none" stroke-width="0" fill-opacity="0" fill="#ffffff"></rect></g><g><text text-anchor="end" x="228" y="207.7833333333333" font-family="Arial" font-size="17" stroke="none" stroke-width="0" fill="#222222">Linear classifier</text></g><g><text text-anchor="end" x="228" y="183.11666666666662" font-family="Arial" font-size="17" stroke="none" stroke-width="0" fill="#222222">Charles's law</text></g><g><text text-anchor="end" x="228" y="158.45" font-family="Arial" font-size="17" stroke="none" stroke-width="0" fill="#222222">Picard–Fuchs equation</text></g><g><text text-anchor="end" x="228" y="133.7833333333333" font-family="Arial" font-size="17" stroke="none" stroke-width="0" fill="#222222">Ellipsoidal coordinates</text></g></g></g><g><g><text text-anchor="middle" x="832.5" y="562.95" font-family="Arial" font-size="17" font-style="italic" stroke="none" stroke-width="0" fill="#222222">Occurrences</text><rect x="230" y="548.5" width="1205" height="17" stroke="none" stroke-width="0" fill-opacity="0" fill="#ffffff"></rect></g><g><text text-anchor="middle" x="16.45" y="300.5" font-family="Arial" font-size="17" font-style="italic" transform="rotate(-90 16.45 300.5)" stroke="none" stroke-width="0" fill="#222222">Mathematical Context</text><path d="M1.999999999999988,486L2.0000000000000107,115L19.00000000000001,115L18.99999999999999,486Z" stroke="none" stroke-width="0" fill-opacity="0" fill="#ffffff"></path></g></g><g></g></svg>